<?xml version="1.0" encoding="UTF-8" standalone="no"?>
<!-- Created with Inkscape (http://www.inkscape.org/) -->

<svg
   width="512"
   height="512"
   viewBox="0 0 512 512"
   version="1.1"
   id="svg5"
   xml:space="preserve"
   xmlns="http://www.w3.org/2000/svg"
   xmlns:svg="http://www.w3.org/2000/svg"><defs
     id="defs2" /><g
     id="layer1"><path
       d="M 255.95196,-1.5e-6 C 233.16326,55.871831 219.4182,92.418581 194.04598,146.62956 c 15.55636,16.48974 34.65105,35.69285 65.66078,57.38097 C 226.36825,190.29194 203.62733,176.51881 186.63267,162.2264 154.16105,229.98342 103.28734,326.50031 0.048234,512 81.190706,465.15504 144.09093,436.27462 202.7109,425.25461 c -2.51719,-10.82629 -3.94828,-22.53703 -3.85108,-34.75593 l 0.0961,-2.59947 c 1.28752,-51.98583 28.33051,-91.96295 60.36555,-89.24859 32.03503,2.71436 56.9355,47.08296 55.64798,99.06882 -0.24215,9.78209 -1.34553,19.19236 -3.27341,27.92027 57.98353,11.34261 120.21115,40.14909 200.25573,86.36029 -15.78323,-29.05803 -29.87113,-55.25173 -43.32455,-80.19857 -21.19134,-16.4247 -43.29495,-37.80151 -88.3821,-60.94321 30.99031,8.05259 53.17899,17.34313 70.47461,27.72771 C 313.93499,143.91659 302.85836,110.0763 255.95181,-1.5e-6 Z"
       id="path2518"
       style="fill:#8FBCBB;fill-opacity:1;fill-rule:evenodd;stroke:none;stroke-width:3.08086" /></g></svg>
